# 3ds Max Wavefront OBJ Exporter v0.99 - (c)2007 guruware
# File Created: 23.03.2025 15:03:52

mtllib dado_texturizado.mtl

#
# object Box001
#

v  4.9886 0.0000 -5.0534
v  4.9886 0.0000 2.3417
v  -2.4065 0.0000 2.3416
v  -2.4065 0.0000 -5.0534
v  4.9886 7.3951 -5.0534
v  -2.4065 7.3951 -5.0534
v  -2.4065 7.3951 2.3416
v  4.9886 7.3951 2.3417
# 8 vertices

vn 0.5774 -0.5774 -0.5773
vn 0.5773 -0.5774 0.5774
vn -0.5774 -0.5774 0.5773
vn -0.5773 -0.5774 -0.5774
vn 0.5774 0.5774 -0.5773
vn -0.5773 0.5774 -0.5774
vn -0.5774 0.5774 0.5773
vn 0.5773 0.5774 0.5774
# 8 vertex normals

vt 0.7470 0.0020 0.0000
vt 0.7470 0.3287 0.0000
vt 0.5030 0.3287 0.0000
vt 0.5030 0.0020 0.0000
vt 0.7471 0.9980 0.0000
vt 0.5018 0.9980 0.0000
vt 0.5018 0.6705 0.0000
vt 0.7471 0.6705 0.0000
vt 0.0020 0.3366 0.0000
vt 0.2461 0.3366 0.0000
vt 0.2461 0.6634 0.0000
vt 0.0020 0.6634 0.0000
vt 0.2520 0.3366 0.0000
vt 0.4971 0.3366 0.0000
vt 0.4971 0.6634 0.0000
vt 0.2520 0.6634 0.0000
vt 0.5029 0.3366 0.0000
vt 0.7471 0.3366 0.0000
vt 0.7471 0.6634 0.0000
vt 0.5029 0.6634 0.0000
vt 0.7539 0.3366 0.0000
vt 0.9981 0.3366 0.0000
vt 0.9981 0.6634 0.0000
vt 0.7539 0.6634 0.0000
# 24 texture coords

o Box001
g Box001
usemtl 03___Default
s 2
f 1/1/1 2/2/2 3/3/3 4/4/4 
s 4
f 5/5/5 6/6/6 7/7/7 8/8/8 
s 8
f 1/9/1 4/10/4 6/11/6 5/12/5 
s 16
f 4/13/4 3/14/3 7/15/7 6/16/6 
s 32
f 3/17/3 2/18/2 8/19/8 7/20/7 
s 64
f 2/21/2 1/22/1 5/23/5 8/24/8 
# 6 polygons

